# Blender 4.3.0
# www.blender.org
mtllib lightning.mtl
o Plane.001
v -0.658901 -0.015992 -0.000000
v 0.658901 -0.015992 -0.000000
v -1.124140 12.166012 0.252134
v 1.122697 12.166012 -0.264832
v -1.020044 11.759944 0.399667
v -0.892899 11.353878 0.508929
v -0.920934 10.947811 0.686807
v -0.992199 10.541744 0.751401
v -0.920934 10.135677 0.686807
v -0.856423 9.729610 0.476271
v -0.710694 9.323544 0.258858
v -0.584292 8.917477 0.207236
v -0.598712 8.511411 0.132374
v -0.706111 8.105344 0.048427
v -0.858491 7.699277 0.293071
v -0.847673 7.293210 0.445806
v -0.756555 6.887143 0.194809
v -0.641871 6.481076 0.056692
v -0.647851 6.075010 0.056695
v -0.841713 5.668943 -0.140213
v -1.013289 5.262876 -0.485185
v -0.985969 4.856809 -0.479162
v -0.867450 4.450743 -0.427393
v -0.834877 4.044676 -0.249006
v -0.573260 3.638608 -0.134201
v -0.241213 3.232542 -0.174162
v -0.143615 2.826476 -0.146633
v -0.394747 2.420408 -0.217469
v -1.038740 2.014341 -0.399116
v -1.231248 1.608275 -0.265463
v -1.154069 1.202209 -0.038110
v -0.982533 0.796141 -0.000000
v -0.781955 0.390074 -0.000000
v 0.781955 0.390074 -0.000000
v 0.909786 0.796141 -0.000000
v 0.654854 1.202208 0.007042
v 0.497683 1.608275 0.019416
v 0.678369 2.014341 0.085219
v 1.256195 2.420408 0.248203
v 1.450813 2.826475 0.303098
v 1.442874 3.232542 0.300859
v 1.242709 3.638608 0.152541
v 0.925820 4.044675 0.219208
v 0.861589 4.450742 0.327854
v 0.831971 4.856809 0.314917
v 0.822657 5.262876 0.308101
v 1.126074 5.668942 0.217297
v 1.352149 6.075009 0.055717
v 1.358128 6.481076 0.055714
v 1.201837 6.887143 -0.125546
v 0.898888 7.293210 -0.282859
v 0.910495 7.699276 -0.182530
v 1.183332 8.105343 -0.058769
v 1.334338 8.511410 -0.316236
v 1.289753 8.917477 -0.491302
v 1.161359 9.323544 -0.444971
v 0.823244 9.729610 -0.575715
v 0.470630 10.135677 -0.574488
v 0.348399 10.541744 -0.463699
v 0.470630 10.947811 -0.574488
v 0.801853 11.353877 -0.572008
v 1.021588 11.759944 -0.406887
v -1.000000 0.000000 1.000000
v 1.000000 0.000000 1.000000
v -1.000000 0.000000 -1.000000
v 1.000000 0.000000 -1.000000
v 0.000000 0.016459 -0.844666
v -0.000000 1.089664 -2.464793
v 0.164786 0.016459 -0.828436
v 0.480857 1.089664 -2.417432
v 0.323240 0.016459 -0.780370
v 0.943235 1.089664 -2.277171
v 0.469271 0.016459 -0.702314
v 1.369366 1.089664 -2.049400
v 0.597269 0.016459 -0.597269
v 1.742872 1.089664 -1.742872
v 0.702314 0.016459 -0.469271
v 2.049400 1.089664 -1.369366
v 0.780370 0.016459 -0.323240
v 2.277171 1.089664 -0.943235
v 0.828436 0.016459 -0.164786
v 2.417432 1.089664 -0.480857
v 0.844666 0.016459 0.000000
v 2.464793 1.089664 -0.000000
v 0.828436 0.016459 0.164786
v 2.417432 1.089664 0.480857
v 0.780370 0.016459 0.323240
v 2.277171 1.089664 0.943235
v 0.702314 0.016459 0.469271
v 2.049400 1.089664 1.369365
v 0.597269 0.016459 0.597269
v 1.742872 1.089664 1.742872
v 0.469271 0.016459 0.702314
v 1.369366 1.089664 2.049400
v 0.323240 0.016459 0.780370
v 0.943235 1.089664 2.277171
v 0.164786 0.016459 0.828436
v 0.480857 1.089664 2.417432
v 0.000000 0.016459 0.844666
v -0.000000 1.089664 2.464793
v -0.164786 0.016459 0.828436
v -0.480857 1.089664 2.417432
v -0.323240 0.016459 0.780370
v -0.943235 1.089664 2.277171
v -0.469271 0.016459 0.702314
v -1.369366 1.089664 2.049400
v -0.597269 0.016459 0.597269
v -1.742872 1.089664 1.742872
v -0.702314 0.016459 0.469271
v -2.049400 1.089664 1.369365
v -0.780370 0.016459 0.323240
v -2.277171 1.089664 0.943235
v -0.828436 0.016459 0.164786
v -2.417432 1.089664 0.480857
v -0.844666 0.016459 0.000000
v -2.464793 1.089664 -0.000000
v -0.828436 0.016459 -0.164786
v -2.417432 1.089664 -0.480857
v -0.780370 0.016459 -0.323240
v -2.277171 1.089664 -0.943235
v -0.702314 0.016459 -0.469271
v -2.049400 1.089664 -1.369366
v -0.597269 0.016459 -0.597269
v -1.742872 1.089664 -1.742872
v -0.469271 0.016459 -0.702314
v -1.369366 1.089664 -2.049400
v -0.323240 0.016459 -0.780370
v -0.943235 1.089664 -2.277171
v -0.164786 0.016459 -0.828436
v -0.480857 1.089664 -2.417432
vn -0.0000 -0.0000 1.0000
vn 0.2949 0.0075 0.9555
vn 0.3489 -0.0335 0.9365
vn 0.5363 -0.1029 0.8377
vn 0.6582 -0.0195 0.7526
vn 0.6716 -0.0000 0.7409
vn 0.6600 0.0170 0.7510
vn 0.5767 0.1100 0.8095
vn 0.4206 0.1317 0.8977
vn 0.3321 0.0362 0.9426
vn 0.2075 0.1478 0.9670
vn 0.1537 0.0870 0.9843
vn 0.2733 0.0620 0.9599
vn 0.3025 0.0443 0.9521
vn 0.2240 0.0364 0.9739
vn 0.0443 0.0436 0.9981
vn -0.0545 0.0018 0.9985
vn -0.2346 -0.0936 0.9676
vn -0.3635 -0.0444 0.9305
vn -0.3988 -0.0028 0.9170
vn -0.3817 0.0113 0.9242
vn -0.3171 0.0270 0.9480
vn -0.2066 -0.0792 0.9752
vn -0.2231 -0.0074 0.9748
vn -0.2715 -0.0000 0.9624
vn -0.2181 0.1679 0.9614
vn -0.1479 0.2070 0.9671
vn -0.0700 0.1787 0.9814
vn -0.0109 0.0284 0.9995
vn -0.0042 0.0110 0.9999
vn -0.0184 0.0475 0.9987
vn -0.1584 0.2027 0.9664
vn -0.2677 0.0128 0.9634
vn -0.2594 -0.0019 0.9658
vn -0.2119 -0.0189 0.9771
vn -0.2512 -0.0424 0.9670
vn -0.3593 0.0247 0.9329
vn -0.3995 -0.0014 0.9167
vn -0.3414 -0.0695 0.9373
vn -0.1193 -0.0167 0.9927
vn -0.0251 0.0008 0.9997
vn 0.0287 0.0281 0.9992
vn 0.1308 0.0648 0.9893
vn 0.2909 0.0354 0.9561
vn 0.2266 0.0631 0.9719
vn 0.1457 0.1395 0.9794
vn 0.2397 0.1398 0.9607
vn 0.3049 0.0913 0.9480
vn 0.3658 0.0249 0.9304
vn 0.4780 0.1506 0.8654
vn 0.6109 0.0845 0.7872
vn 0.6134 -0.0801 0.7857
vn 0.4877 -0.1082 0.8663
vn 0.3461 -0.0314 0.9377
vn -0.0000 1.0000 -0.0000
vn -0.0000 0.8337 0.5522
vn -0.1077 0.8337 0.5416
vn -0.2113 0.8337 0.5102
vn -0.3068 0.8337 0.4592
vn -0.3905 0.8337 0.3905
vn -0.4592 0.8337 0.3068
vn -0.5102 0.8337 0.2113
vn -0.5416 0.8337 0.1077
vn -0.5522 0.8337 -0.0000
vn -0.5416 0.8337 -0.1077
vn -0.5102 0.8337 -0.2113
vn -0.4592 0.8337 -0.3068
vn -0.3905 0.8337 -0.3905
vn -0.3068 0.8337 -0.4592
vn -0.2113 0.8337 -0.5102
vn -0.1077 0.8337 -0.5416
vn -0.0000 0.8337 -0.5522
vn 0.1077 0.8337 -0.5416
vn 0.2113 0.8337 -0.5102
vn 0.3068 0.8337 -0.4592
vn 0.3905 0.8337 -0.3905
vn 0.4592 0.8337 -0.3068
vn 0.5102 0.8337 -0.2113
vn 0.5416 0.8337 -0.1077
vn 0.5522 0.8337 -0.0000
vn 0.5416 0.8337 0.1077
vn 0.5102 0.8337 0.2113
vn 0.4592 0.8337 0.3068
vn 0.3905 0.8337 0.3905
vn 0.3068 0.8337 0.4592
vn 0.2113 0.8337 0.5102
vn 0.1077 0.8337 0.5416
vt 0.000000 0.966667
vt 1.000000 0.966667
vt 1.000000 1.000000
vt 0.000000 1.000000
vt 0.000000 0.000000
vt 1.000000 0.000000
vt 1.000000 0.033333
vt 0.000000 0.033333
vt 1.000000 0.066667
vt 0.000000 0.066667
vt 1.000000 0.100000
vt 0.000000 0.100000
vt 1.000000 0.133333
vt 0.000000 0.133333
vt 1.000000 0.166667
vt 0.000000 0.166667
vt 1.000000 0.200000
vt 0.000000 0.200000
vt 1.000000 0.233333
vt 0.000000 0.233333
vt 1.000000 0.266667
vt 0.000000 0.266667
vt 1.000000 0.300000
vt 0.000000 0.300000
vt 1.000000 0.333333
vt 0.000000 0.333333
vt 1.000000 0.366667
vt 0.000000 0.366667
vt 1.000000 0.400000
vt 0.000000 0.400000
vt 1.000000 0.433333
vt 0.000000 0.433333
vt 1.000000 0.466667
vt 0.000000 0.466667
vt 1.000000 0.500000
vt 0.000000 0.500000
vt 1.000000 0.533333
vt 0.000000 0.533333
vt 1.000000 0.566667
vt 0.000000 0.566667
vt 1.000000 0.600000
vt 0.000000 0.600000
vt 1.000000 0.633333
vt 0.000000 0.633333
vt 1.000000 0.666667
vt 0.000000 0.666667
vt 1.000000 0.700000
vt 0.000000 0.700000
vt 1.000000 0.733333
vt 0.000000 0.733333
vt 1.000000 0.766667
vt 0.000000 0.766667
vt 1.000000 0.800000
vt 0.000000 0.800000
vt 1.000000 0.833333
vt 0.000000 0.833333
vt 1.000000 0.866667
vt 0.000000 0.866667
vt 1.000000 0.900000
vt 0.000000 0.900000
vt 1.000000 0.933333
vt 0.000000 0.933333
vt 0.968750 0.000000
vt 0.968750 1.000000
vt 0.937500 0.000000
vt 0.937500 1.000000
vt 0.906250 0.000000
vt 0.906250 1.000000
vt 0.875000 0.000000
vt 0.875000 1.000000
vt 0.843750 0.000000
vt 0.843750 1.000000
vt 0.812500 0.000000
vt 0.812500 1.000000
vt 0.781250 0.000000
vt 0.781250 1.000000
vt 0.750000 0.000000
vt 0.750000 1.000000
vt 0.718750 0.000000
vt 0.718750 1.000000
vt 0.687500 0.000000
vt 0.687500 1.000000
vt 0.656250 0.000000
vt 0.656250 1.000000
vt 0.625000 0.000000
vt 0.625000 1.000000
vt 0.593750 0.000000
vt 0.593750 1.000000
vt 0.562500 0.000000
vt 0.562500 1.000000
vt 0.531250 0.000000
vt 0.531250 1.000000
vt 0.500000 0.000000
vt 0.500000 1.000000
vt 0.468750 0.000000
vt 0.468750 1.000000
vt 0.437500 0.000000
vt 0.437500 1.000000
vt 0.406250 0.000000
vt 0.406250 1.000000
vt 0.375000 0.000000
vt 0.375000 1.000000
vt 0.343750 0.000000
vt 0.343750 1.000000
vt 0.312500 0.000000
vt 0.312500 1.000000
vt 0.281250 0.000000
vt 0.281250 1.000000
vt 0.250000 0.000000
vt 0.250000 1.000000
vt 0.218750 0.000000
vt 0.218750 1.000000
vt 0.187500 0.000000
vt 0.187500 1.000000
vt 0.156250 0.000000
vt 0.156250 1.000000
vt 0.125000 0.000000
vt 0.125000 1.000000
vt 0.093750 0.000000
vt 0.093750 1.000000
vt 0.062500 0.000000
vt 0.062500 1.000000
vt 0.031250 0.000000
vt 0.031250 1.000000
s 1
usemtl Material.003
f 5/1/3 62/2/54 4/3/2 3/4/2
f 1/5/1 2/6/1 34/7/1 33/8/1
f 33/8/1 34/7/1 35/9/30 32/10/29
f 32/10/29 35/9/30 36/11/31 31/12/28
f 31/12/28 36/11/31 37/13/32 30/14/27
f 30/14/27 37/13/32 38/15/33 29/16/26
f 29/16/26 38/15/33 39/17/25 28/18/25
f 28/18/25 39/17/25 40/19/25 27/20/25
f 27/20/25 40/19/25 41/21/34 26/22/24
f 26/22/24 41/21/34 42/23/35 25/24/23
f 25/24/23 42/23/35 43/25/36 24/26/22
f 24/26/22 43/25/36 44/27/37 23/28/21
f 23/28/21 44/27/37 45/29/38 22/30/20
f 22/30/20 45/29/38 46/31/39 21/32/19
f 21/32/19 46/31/39 47/33/40 20/34/18
f 20/34/18 47/33/40 48/35/41 19/36/17
f 19/36/17 48/35/41 49/37/42 18/38/16
f 18/38/16 49/37/42 50/39/43 17/40/15
f 17/40/15 50/39/43 51/41/44 16/42/14
f 16/42/14 51/41/44 52/43/45 15/44/13
f 15/44/13 52/43/45 53/45/46 14/46/12
f 14/46/12 53/45/46 54/47/47 13/48/11
f 13/48/11 54/47/47 55/49/48 12/50/10
f 12/50/10 55/49/48 56/51/49 11/52/9
f 11/52/9 56/51/49 57/53/50 10/54/8
f 10/54/8 57/53/50 58/55/51 9/56/7
f 9/56/7 58/55/51 59/57/6 8/58/6
f 8/58/6 59/57/6 60/59/52 7/60/5
f 7/60/5 60/59/52 61/61/53 6/62/4
f 6/62/4 61/61/53 62/2/54 5/1/3
usemtl Material.002
f 63/5/55 64/6/55 66/3/55 65/4/55
usemtl Material.001
f 67/6/56 69/63/57 70/64/57 68/3/56
f 69/63/57 71/65/58 72/66/58 70/64/57
f 71/65/58 73/67/59 74/68/59 72/66/58
f 73/67/59 75/69/60 76/70/60 74/68/59
f 75/69/60 77/71/61 78/72/61 76/70/60
f 77/71/61 79/73/62 80/74/62 78/72/61
f 79/73/62 81/75/63 82/76/63 80/74/62
f 81/75/63 83/77/64 84/78/64 82/76/63
f 83/77/64 85/79/65 86/80/65 84/78/64
f 85/79/65 87/81/66 88/82/66 86/80/65
f 87/81/66 89/83/67 90/84/67 88/82/66
f 89/83/67 91/85/68 92/86/68 90/84/67
f 91/85/68 93/87/69 94/88/69 92/86/68
f 93/87/69 95/89/70 96/90/70 94/88/69
f 95/89/70 97/91/71 98/92/71 96/90/70
f 97/91/71 99/93/72 100/94/72 98/92/71
f 99/93/72 101/95/73 102/96/73 100/94/72
f 101/95/73 103/97/74 104/98/74 102/96/73
f 103/97/74 105/99/75 106/100/75 104/98/74
f 105/99/75 107/101/76 108/102/76 106/100/75
f 107/101/76 109/103/77 110/104/77 108/102/76
f 109/103/77 111/105/78 112/106/78 110/104/77
f 111/105/78 113/107/79 114/108/79 112/106/78
f 113/107/79 115/109/80 116/110/80 114/108/79
f 115/109/80 117/111/81 118/112/81 116/110/80
f 117/111/81 119/113/82 120/114/82 118/112/81
f 119/113/82 121/115/83 122/116/83 120/114/82
f 121/115/83 123/117/84 124/118/84 122/116/83
f 123/117/84 125/119/85 126/120/85 124/118/84
f 125/119/85 127/121/86 128/122/86 126/120/85
f 127/121/86 129/123/87 130/124/87 128/122/86
f 129/123/87 67/5/56 68/4/56 130/124/87
